<?xml version="1.0" encoding="UTF-8"?>
<svg version="1.1" xmlns="http://www.w3.org/2000/svg" width="67" height="67">
<path d="M0 0 C22.11 0 44.22 0 67 0 C67 22.11 67 44.22 67 67 C44.89 67 22.78 67 0 67 C0 44.89 0 22.78 0 0 Z " fill="#F3F8F8" transform="translate(0,0)"/>
<path d="M0 0 C5.62519536 6.12876088 7.37051561 11.63829156 7.2734375 19.7734375 C6.51340842 28.7417806 1.55981085 36.14144069 -4 43 C-4.33 43 -4.66 43 -5 43 C-4.85856168 40.2705414 -4.71200471 37.54151877 -4.5625 34.8125 C-4.52318359 34.04357422 -4.48386719 33.27464844 -4.44335938 32.48242188 C-4.40146484 31.73154297 -4.35957031 30.98066406 -4.31640625 30.20703125 C-4.27974854 29.5210083 -4.24309082 28.83498535 -4.20532227 28.12817383 C-3.973905 25.72952425 -3.47259813 23.36299064 -3 21 C-9.93 21 -16.86 21 -24 21 C-24 23.97 -24 26.94 -24 30 C-21.36 30 -18.72 30 -16 30 C-15.97310784 31.47906892 -15.95365379 32.95827483 -15.9375 34.4375 C-15.92589844 35.26121094 -15.91429688 36.08492187 -15.90234375 36.93359375 C-16 39 -16 39 -17 40 C-22.4653588 40.64190456 -26.64204863 41.03204304 -31.125 37.625 C-35.05850724 32.11808986 -34.7759192 26.61052729 -34 20 C-30.87524692 12.02114576 -23.81493431 6.31830171 -16.2578125 2.6796875 C-10.78286263 0.51094005 -5.82057263 -1.28249905 0 0 Z " fill="#087497" transform="translate(58,10)"/>
<path d="M0 0 C22.11 0 44.22 0 67 0 C67 6.6 67 13.2 67 20 C66.34 20 65.68 20 65 20 C64.5978125 18.7934375 64.5978125 18.7934375 64.1875 17.5625 C63.5996875 16.2940625 63.5996875 16.2940625 63 15 C62.01 14.67 61.02 14.34 60 14 C58.8125 11.4375 58.8125 11.4375 58 9 C57.34 9 56.68 9 56 9 C56 8.34 56 7.68 56 7 C55.175 6.731875 54.35 6.46375 53.5 6.1875 C51.70483823 5.57842726 49.90826875 4.95981858 48.171875 4.19921875 C39.64529251 0.54249333 32.14968202 1.34789135 23.62109375 4.7109375 C20.2479422 6.36986449 17.43028382 8.41614415 14.55859375 10.828125 C13 12 13 12 11 12 C10.71125 12.5775 10.4225 13.155 10.125 13.75 C9.08333333 15.83333333 8.04166667 17.91666667 7 20 C7.9075 19.505 8.815 19.01 9.75 18.5 C13 17 13 17 17 17 C16.875 18.6875 16.875 18.6875 16 21 C14.549362 22.15391659 13.09680697 23.30562475 11.62890625 24.4375 C8.56437078 27.37710237 6.85975048 31.22863349 5 35 C4.67 35.66 4.34 36.32 4 37 C3.3908887 43.30195926 3.55167981 49.52791156 7 55 C11.09594815 59.3221048 14.63319691 62.91591295 20.73828125 63.1328125 C22.26302073 63.1354758 23.78777735 63.13264272 25.3125 63.125 C26.45235352 63.13080078 26.45235352 63.13080078 27.61523438 63.13671875 C31.54304438 63.12989371 35.16496512 62.96449979 39 62 C37.96875 63.953125 37.96875 63.953125 36 66 C33.37699103 66.478025 31.13717597 66.69657655 28.5 66.75 C27.86191406 66.77964844 27.22382813 66.80929688 26.56640625 66.83984375 C17.73150191 67.1853428 8.81161494 67 0 67 C0 44.89 0 22.78 0 0 Z " fill="#F7FBF9" transform="translate(0,0)"/>
<path d="M0 0 C-0.66 0.639375 -1.32 1.27875 -2 1.9375 C-3.00474545 2.95366301 -4.00399718 3.97526633 -5 5 C-5.639375 5.65484375 -6.27875 6.3096875 -6.9375 6.984375 C-13.00863394 13.46944989 -18.13633019 20.08047542 -18.5625 29.25 C-18.29760554 33.8104803 -17.16219178 36.5881615 -14 40 C-9.35742899 42.87429764 -5.47159278 43.41708102 -0.125 43.25 C0.57882813 43.23904297 1.28265625 43.22808594 2.0078125 43.21679688 C6.73720679 43.11607829 11.33723859 42.7771269 16 42 C11.32787368 47.25990995 4.53573796 48.92000166 -2.29296875 49.39453125 C-3.79905139 49.44477737 -5.30571264 49.4799638 -6.8125 49.5 C-7.52937988 49.51828857 -8.24625977 49.53657715 -8.98486328 49.55541992 C-15.07442506 49.48523755 -18.48425525 47.35447906 -22.828125 43.2890625 C-27.85961735 37.40055771 -29.506102 32.27653755 -29.30859375 24.515625 C-28.38126693 16.95615066 -23.27481308 11.17138537 -18 6 C-12.29457014 1.57538093 -7.23507469 -0.34452737 0 0 Z " fill="#EE893C" transform="translate(32,15)"/>
<path d="M0 0 C0 0.66 0 1.32 0 2 C-1.19753906 2.02578125 -2.39507812 2.0515625 -3.62890625 2.078125 C-18.38859864 2.53231628 -30.98983273 5.04869879 -44.25488281 11.80126953 C-45.81138281 12.5862906 -47.40343524 13.30004909 -49 14 C-49.66 13.67 -50.32 13.34 -51 13 C-38.64958823 -6.32889646 -19.44237404 -9.85435396 0 0 Z " fill="#197895" transform="translate(56,7)"/>
<path d="M0 0 C0.33 0 0.66 0 1 0 C1.09796875 0.94101562 1.1959375 1.88203125 1.296875 2.8515625 C2.33124519 11.46536941 3.43053751 16.9997472 10.125 22.8125 C14.6303146 26.24045676 17.81144792 26.1525742 23.3125 26.125 C24.45235352 26.13080078 24.45235352 26.13080078 25.61523438 26.13671875 C29.54304438 26.12989371 33.16496512 25.96449979 37 25 C35.96875 26.953125 35.96875 26.953125 34 29 C31.37272571 29.47880232 29.14096035 29.69761781 26.5 29.75 C25.76402588 29.77892334 25.02805176 29.80784668 24.26977539 29.83764648 C15.51848286 30.13954176 6.75470467 30.08648995 -2 30 C-2.05805933 25.75005737 -2.09361654 21.50021676 -2.125 17.25 C-2.14175781 16.0434375 -2.15851563 14.836875 -2.17578125 13.59375 C-2.18222656 12.43359375 -2.18867187 11.2734375 -2.1953125 10.078125 C-2.20578613 9.00981445 -2.21625977 7.94150391 -2.22705078 6.84082031 C-2.00161519 4.02020895 -1.45848994 2.39212537 0 0 Z " fill="#FDFAF2" transform="translate(2,37)"/>
<path d="M0 0 C1.44149414 0.01353516 1.44149414 0.01353516 2.91210938 0.02734375 C5.25417805 0.05064792 7.59569792 0.08335942 9.9375 0.125 C9.9375 0.455 9.9375 0.785 9.9375 1.125 C9.32003906 1.23457031 8.70257813 1.34414062 8.06640625 1.45703125 C-2.60852132 3.45553367 -13.05217437 5.83261766 -19.59765625 15.359375 C-20.40708465 16.75545334 -21.17833088 18.1749727 -21.89453125 19.62109375 C-22.27996094 20.11738281 -22.66539063 20.61367188 -23.0625 21.125 C-24.3825 21.125 -25.7025 21.125 -27.0625 21.125 C-28.0525 21.455 -29.0425 21.785 -30.0625 22.125 C-28.27419455 15.56788001 -22.52425262 10.83899178 -17.0625 7.125 C-21.93146303 7.72119955 -26.39040951 8.69476822 -31.0625 10.125 C-31.0625 9.465 -31.0625 8.805 -31.0625 8.125 C-31.7225 7.795 -32.3825 7.465 -33.0625 7.125 C-31.08672092 6.32491635 -29.10666153 5.53540079 -27.125 4.75 C-26.02285156 4.30914063 -24.92070312 3.86828125 -23.78515625 3.4140625 C-15.73692825 0.62716298 -8.50068617 -0.15380504 0 0 Z " fill="#ECF0E4" transform="translate(48.0625,8.875)"/>
<path d="M0 0 C0.33 0 0.66 0 1 0 C1.12375 1.794375 1.12375 1.794375 1.25 3.625 C1.80874379 7.94952387 3.11392361 10.64591123 6 14 C10.63366791 16.88665909 14.53201376 17.41696832 19.875 17.25 C20.57882813 17.23904297 21.28265625 17.22808594 22.0078125 17.21679688 C26.73720679 17.11607829 31.33723859 16.7771269 36 16 C31.32787368 21.25990995 24.53573796 22.92000166 17.70703125 23.39453125 C16.20094861 23.44477737 14.69428736 23.4799638 13.1875 23.5 C12.47062012 23.51828857 11.75374023 23.53657715 11.01513672 23.55541992 C5.87260726 23.49615212 2.9590759 22.2141831 -1 19 C-3.375 16.25 -3.375 16.25 -5 14 C-3.68 14.33 -2.36 14.66 -1 15 C0.10836423 13.11683841 0.10836423 13.11683841 1 11 C0.67 10.34 0.34 9.68 0 9 C-0.06950541 7.45976004 -0.08452357 5.91665012 -0.0625 4.375 C-0.05347656 3.55773438 -0.04445313 2.74046875 -0.03515625 1.8984375 C-0.02355469 1.27195313 -0.01195312 0.64546875 0 0 Z " fill="#E68C45" transform="translate(12,41)"/>
<path d="M0 0 C0.93457031 0.00322266 1.86914062 0.00644531 2.83203125 0.00976562 C3.80011719 0.01814453 4.76820312 0.02652344 5.765625 0.03515625 C6.74917969 0.03966797 7.73273437 0.04417969 8.74609375 0.04882812 C11.16933291 0.06059142 13.59244773 0.07702941 16.015625 0.09765625 C16.015625 0.42765625 16.015625 0.75765625 16.015625 1.09765625 C15.39816406 1.20722656 14.78070313 1.31679687 14.14453125 1.4296875 C8.23312754 2.53638865 2.67359355 4.07282088 -2.984375 6.09765625 C-3.974375 6.42765625 -4.964375 6.75765625 -5.984375 7.09765625 C-5.984375 5.77765625 -5.984375 4.45765625 -5.984375 3.09765625 C-6.974375 2.43765625 -7.964375 1.77765625 -8.984375 1.09765625 C-5.9161112 0.20015803 -3.19167524 -0.01946143 0 0 Z " fill="#E0F7F9" transform="translate(41.984375,8.90234375)"/>
<path d="M0 0 C-2.85276137 2.93200474 -5.65079784 5.64315404 -9 8 C-9.33 6.68 -9.66 5.36 -10 4 C-11.32 4.33 -12.64 4.66 -14 5 C-14 5.99 -14 6.98 -14 8 C-15.98 8.33 -17.96 8.66 -20 9 C-14.81244416 2.9757416 -8.16787279 -0.83773054 0 0 Z " fill="#DE9359" transform="translate(32,15)"/>
<path d="M0 0 C0.66 0.33 1.32 0.66 2 1 C1.01 2.485 1.01 2.485 0 4 C-0.66 4 -1.32 4 -2 4 C-2 4.66 -2 5.32 -2 6 C-4 7.625 -4 7.625 -6 9 C-4.68 9.33 -3.36 9.66 -2 10 C-3.61992165 10.86375896 -5.24611861 11.71575854 -6.875 12.5625 C-8.23238281 13.27599609 -8.23238281 13.27599609 -9.6171875 14.00390625 C-10.40351563 14.33261719 -11.18984375 14.66132813 -12 15 C-12.66 14.67 -13.32 14.34 -14 14 C-10.05708355 8.1154959 -5.8845041 3.94291645 0 0 Z " fill="#2A788C" transform="translate(19,6)"/>
<path d="M0 0 C0.33 0 0.66 0 1 0 C1 2.31 1 4.62 1 7 C3.64 7 6.28 7 9 7 C9 9.97 9 12.94 9 16 C7.35 16.33 5.7 16.66 4 17 C4.99 16.67 5.98 16.34 7 16 C6.814375 15.401875 6.62875 14.80375 6.4375 14.1875 C6 12 6 12 7 9 C4.36 9 1.72 9 -1 9 C-1.09765625 2.84765625 -1.09765625 2.84765625 -1 1 C-0.67 0.67 -0.34 0.34 0 0 Z " fill="#1A728A" transform="translate(33,33)"/>
<path d="M0 0 C-0.6875 1.875 -0.6875 1.875 -2 4 C-3.6476038 4.71247732 -5.31763529 5.37400383 -7 6 C-8.70294787 7.28667172 -10.37946188 8.61096733 -12 10 C-12 6.68065327 -11.56290854 5.97512393 -9.6875 3.375 C-9.25824219 2.76398437 -8.82898438 2.15296875 -8.38671875 1.5234375 C-5.74117437 -1.3829352 -3.4552302 -1.07231282 0 0 Z " fill="#E88E45" transform="translate(18,24)"/>
<path d="M0 0 C-4.9000081 3.33455096 -9.20644472 5.67231025 -15 7 C-15 6.34 -15 5.68 -15 5 C-15.66 4.67 -16.32 4.34 -17 4 C-14.92227529 3.13227971 -12.83756823 2.28126381 -10.75 1.4375 C-9.58984375 0.96183594 -8.4296875 0.48617188 -7.234375 -0.00390625 C-4.13733356 -0.95770524 -2.92678299 -1.20983356 0 0 Z " fill="#DAE5DB" transform="translate(32,12)"/>
<path d="M0 0 C0.66 0 1.32 0 2 0 C2.49863689 8.06129646 2.0992342 14.86374192 -2 22 C-2.66 22.33 -3.32 22.66 -4 23 C-3.2884375 21.205625 -3.2884375 21.205625 -2.5625 19.375 C-0.42265099 13.06648288 -0.2726348 6.60904361 0 0 Z " fill="#24748B" transform="translate(63,21)"/>
<path d="M0 0 C0 0.99 0 1.98 0 3 C-0.99580078 3.09087891 -0.99580078 3.09087891 -2.01171875 3.18359375 C-7.54248286 3.69404742 -7.54248286 3.69404742 -13 4.6875 C-13.66 4.790625 -14.32 4.89375 -15 5 C-15.66 4.34 -16.32 3.68 -17 3 C-11.10261508 0.70657253 -6.33393082 -0.34548714 0 0 Z " fill="#2F7E97" transform="translate(58,10)"/>
<path d="M0 0 C0.33 0.99 0.66 1.98 1 3 C0.34 3 -0.32 3 -1 3 C-1 3.66 -1 4.32 -1 5 C-2.98 5.66 -4.96 6.32 -7 7 C-6.67 6.34 -6.34 5.68 -6 5 C-7.32 4.34 -8.64 3.68 -10 3 C-6.48812804 0.59185923 -4.27343092 -0.36629408 0 0 Z " fill="#F7F7EF" transform="translate(37,11)"/>
<path d="M0 0 C-1.26691507 0.67408308 -2.53870749 1.33900497 -3.8125 2 C-4.52019531 2.37125 -5.22789063 2.7425 -5.95703125 3.125 C-8 4 -8 4 -11 4 C-11 3.34 -11 2.68 -11 2 C-13.97 2 -16.94 2 -20 2 C-20 1.67 -20 1.34 -20 1 C-17.23001178 0.6376556 -14.45937619 0.28482483 -11.6875 -0.0625 C-10.90181641 -0.16626953 -10.11613281 -0.27003906 -9.30664062 -0.37695312 C-8.54931641 -0.47041016 -7.79199219 -0.56386719 -7.01171875 -0.66015625 C-6.31522217 -0.74918213 -5.61872559 -0.83820801 -4.90112305 -0.92993164 C-3 -1 -3 -1 0 0 Z " fill="#DAA678" transform="translate(48,58)"/>
<path d="M0 0 C7.37653219 0.75015582 14.67831776 1.83441535 22 3 C22 3.33 22 3.66 22 4 C19.45767658 4.08152344 16.91800798 4.14073716 14.375 4.1875 C13.30572266 4.22520508 13.30572266 4.22520508 12.21484375 4.26367188 C7.37723584 4.33024446 4.25261662 3.55559453 0 1 C0 0.67 0 0.34 0 0 Z " fill="#FAEDD4" transform="translate(18,55)"/>
<path d="M0 0 C0.66 0.33 1.32 0.66 2 1 C-0.44568622 3.92746298 -0.44568622 3.92746298 -2.90112305 4.2487793 C-3.59761963 4.19117432 -4.29411621 4.13356934 -5.01171875 4.07421875 C-5.76904297 4.01943359 -6.52636719 3.96464844 -7.30664062 3.90820312 C-8.09232422 3.83537109 -8.87800781 3.76253906 -9.6875 3.6875 C-10.48478516 3.62626953 -11.28207031 3.56503906 -12.10351562 3.50195312 C-14.07016953 3.34886031 -16.03528989 3.17629291 -18 3 C-18 2.67 -18 2.34 -18 2 C-16.95199219 1.93941406 -15.90398438 1.87882812 -14.82421875 1.81640625 C-13.44529952 1.73198262 -12.06639395 1.64733553 -10.6875 1.5625 C-9.99720703 1.52318359 -9.30691406 1.48386719 -8.59570312 1.44335938 C-5.52838465 1.25072585 -2.93031848 0.97677283 0 0 Z " fill="#F7E7C8" transform="translate(37,62)"/>
<path d="M0 0 C1.06723961 3.46222615 1.10173486 6.64039266 1.0625 10.25 C1.05347656 11.32765625 1.04445313 12.4053125 1.03515625 13.515625 C1.02355469 14.33546875 1.01195312 15.1553125 1 16 C0.01 15.67 -0.98 15.34 -2 15 C-2.3690205 4.44191344 -2.3690205 4.44191344 0 0 Z " fill="#F8E2C6" transform="translate(15,34)"/>
<path d="M0 0 C0.66 0.33 1.32 0.66 2 1 C1.21654285 2.17219543 0.42297164 3.33763668 -0.375 4.5 C-0.81585938 5.1496875 -1.25671875 5.799375 -1.7109375 6.46875 C-2.13632812 6.9740625 -2.56171875 7.479375 -3 8 C-3.66 8 -4.32 8 -5 8 C-5.33 9.32 -5.66 10.64 -6 12 C-6.66 12 -7.32 12 -8 12 C-6.49087042 7.01987239 -3.44338151 3.75740058 0 0 Z " fill="#277991" transform="translate(33,18)"/>
<path d="M0 0 C1.98 0.99 1.98 0.99 4 2 C4 3.32 4 4.64 4 6 C4.66 6 5.32 6 6 6 C5.67 9.96 5.34 13.92 5 18 C4.67 18 4.34 18 4 18 C3.96261719 17.28714844 3.92523438 16.57429688 3.88671875 15.83984375 C3.47904918 9.9006577 2.71337774 5.30878253 0 0 Z " fill="#DAF1F4" transform="translate(61,14)"/>
<path d="M0 0 C0 0.33 0 0.66 0 1 C-1.65 1.33 -3.3 1.66 -5 2 C-5.103125 2.639375 -5.20625 3.27875 -5.3125 3.9375 C-5.539375 4.618125 -5.76625 5.29875 -6 6 C-6.99 6.33 -7.98 6.66 -9 7 C-9 5.68 -9 4.36 -9 3 C-9.99 2.34 -10.98 1.68 -12 1 C-8.0186217 -0.3271261 -4.14954773 -0.06915913 0 0 Z " fill="#D1EDF0" transform="translate(45,9)"/>
<path d="M0 0 C0.33 0 0.66 0 1 0 C1.35281338 4.1970092 0.64185432 6.06522073 -2 9.3125 C-2.556875 10.00988281 -3.11375 10.70726562 -3.6875 11.42578125 C-4.120625 11.94527344 -4.55375 12.46476562 -5 13 C-5.66 12.67 -6.32 12.34 -7 12 C-5.85865673 9.99743426 -4.71181367 7.99800203 -3.5625 6 C-2.92441406 4.88625 -2.28632812 3.7725 -1.62890625 2.625 C-1.09136719 1.75875 -0.55382813 0.8925 0 0 Z " fill="#D2EFF3" transform="translate(62,39)"/>
<path d="M0 0 C0.33 0 0.66 0 1 0 C1.66 3.96 2.32 7.92 3 12 C4.65 12.33 6.3 12.66 8 13 C6.02 13.99 6.02 13.99 4 15 C-0.11888494 9.98010898 -0.51211281 6.40141012 0 0 Z " fill="#1F7287" transform="translate(24,34)"/>
<path d="M0 0 C0.33 0.99 0.66 1.98 1 3 C-0.65 4.65 -2.3 6.3 -4 8 C-4 6.02 -4 4.04 -4 2 C-3.01 2.33 -2.02 2.66 -1 3 C-0.67 2.01 -0.34 1.02 0 0 Z " fill="#277184" transform="translate(57,45)"/>
<path d="M0 0 C0.556875 0.226875 1.11375 0.45375 1.6875 0.6875 C-2.74326923 3.76442308 -2.74326923 3.76442308 -5.625 3.375 C-6.4603125 3.0346875 -6.4603125 3.0346875 -7.3125 2.6875 C-2.88173077 -0.38942308 -2.88173077 -0.38942308 0 0 Z " fill="#D4EDED" transform="translate(30.3125,11.3125)"/>
<path d="M0 0 C0.66 0.33 1.32 0.66 2 1 C1.67 1.99 1.34 2.98 1 4 C-2.5625 5.1875 -2.5625 5.1875 -6 6 C-4.71034824 4.62437146 -3.37310707 3.29233607 -2 2 C-1.34 2 -0.68 2 0 2 C0 1.34 0 0.68 0 0 Z " fill="#067498" transform="translate(17,10)"/>
</svg>
